# xmcd CD database file
#
# Track frame offsets:
#	150
#	15475
#	26802
#	37135
#	46939
#	57520
#	72945
#	81677
#	92480
#	105582
#	116875
#	130937
#
# Disc length: 1890 seconds
#
# Revision: 0
# Processed by: cddbd v1.5.2PL0 Copyright (c) Steve Scherf et al.
# Submitted via: CDex 1.51
#
DISCID=a807600c
DTITLE=Various Artist - Herinnert u zich deze nog?
DYEAR=2001
DGENRE=Country
TTITLE0=Sweet little Liza
TTITLE1=Sway
TTITLE2=Telephone Blues
TTITLE3=His latest flame
TTITLE4=Tree steps to heaven
TTITLE5=The tide is high
TTITLE6=If i were a carpenter
TTITLE7=Twistin Patricia
TTITLE8=Memphis Tenessee
TTITLE9=Queen on the hop
TTITLE10=Walking to the moon
TTITLE11=Devil in dequise
EXTD=YEAR: 2001
EXTT0=
EXTT1=
EXTT2=
EXTT3=
EXTT4=
EXTT5=
EXTT6=
EXTT7=
EXTT8=
EXTT9=
EXTT10=
EXTT11=
PLAYORDER=
